<mxfile host="app.diagrams.net" modified="2023-06-24T09:56:45.557Z" agent="Mozilla/5.0 (Windows NT 10.0; Win64; x64) AppleWebKit/537.36 (KHTML, like Gecko) Chrome/114.0.0.0 Safari/537.36" etag="ReD20Vdjm4LfP8TeehHr" version="21.1.8" type="device">
  <diagram id="C5RBs43oDa-KdzZeNtuy" name="Page-1">
    <mxGraphModel dx="3215" dy="1082" grid="1" gridSize="10" guides="1" tooltips="1" connect="1" arrows="1" fold="1" page="1" pageScale="1" pageWidth="1200" pageHeight="1920" math="0" shadow="0">
      <root>
        <mxCell id="WIyWlLk6GJQsqaUBKTNV-0" />
        <mxCell id="WIyWlLk6GJQsqaUBKTNV-1" parent="WIyWlLk6GJQsqaUBKTNV-0" />
        <mxCell id="8c5ajKfIK-UFhFimAFkt-215" value="" style="rounded=0;whiteSpace=wrap;html=1;fillColor=#ffcd28;gradientColor=#ffa500;strokeColor=#d79b00;" vertex="1" parent="WIyWlLk6GJQsqaUBKTNV-1">
          <mxGeometry x="660" y="983" width="485" height="367" as="geometry" />
        </mxCell>
        <mxCell id="8c5ajKfIK-UFhFimAFkt-214" value="" style="rounded=0;whiteSpace=wrap;html=1;fillColor=#e6d0de;gradientColor=#d5739d;strokeColor=#996185;" vertex="1" parent="WIyWlLk6GJQsqaUBKTNV-1">
          <mxGeometry x="-25" y="854" width="485" height="420" as="geometry" />
        </mxCell>
        <mxCell id="8c5ajKfIK-UFhFimAFkt-213" value="" style="rounded=0;whiteSpace=wrap;html=1;fillColor=#f8cecc;gradientColor=#ea6b66;strokeColor=#b85450;" vertex="1" parent="WIyWlLk6GJQsqaUBKTNV-1">
          <mxGeometry x="640" y="568" width="490" height="392" as="geometry" />
        </mxCell>
        <mxCell id="8c5ajKfIK-UFhFimAFkt-212" value="" style="rounded=0;whiteSpace=wrap;html=1;fillColor=#f5f5f5;gradientColor=#b3b3b3;strokeColor=#666666;" vertex="1" parent="WIyWlLk6GJQsqaUBKTNV-1">
          <mxGeometry x="-25" y="588" width="640" height="252" as="geometry" />
        </mxCell>
        <mxCell id="8c5ajKfIK-UFhFimAFkt-211" value="" style="rounded=0;whiteSpace=wrap;html=1;fillColor=#d5e8d4;gradientColor=#97d077;strokeColor=#82b366;" vertex="1" parent="WIyWlLk6GJQsqaUBKTNV-1">
          <mxGeometry x="665" y="10" width="525" height="540" as="geometry" />
        </mxCell>
        <mxCell id="8c5ajKfIK-UFhFimAFkt-210" value="" style="rounded=0;whiteSpace=wrap;html=1;fillColor=#fff2cc;strokeColor=#d6b656;gradientColor=#ffd966;" vertex="1" parent="WIyWlLk6GJQsqaUBKTNV-1">
          <mxGeometry x="-50" y="10" width="690" height="540" as="geometry" />
        </mxCell>
        <mxCell id="8c5ajKfIK-UFhFimAFkt-1" value="Bookshelf" style="swimlane;fontStyle=1;align=center;verticalAlign=top;childLayout=stackLayout;horizontal=1;startSize=26;horizontalStack=0;resizeParent=1;resizeParentMax=0;resizeLast=0;collapsible=1;marginBottom=0;whiteSpace=wrap;html=1;" vertex="1" parent="WIyWlLk6GJQsqaUBKTNV-1">
          <mxGeometry x="40" y="30" width="130" height="34" as="geometry" />
        </mxCell>
        <mxCell id="8c5ajKfIK-UFhFimAFkt-3" value="" style="line;strokeWidth=1;fillColor=none;align=left;verticalAlign=middle;spacingTop=-1;spacingLeft=3;spacingRight=3;rotatable=0;labelPosition=right;points=[];portConstraint=eastwest;strokeColor=inherit;" vertex="1" parent="8c5ajKfIK-UFhFimAFkt-1">
          <mxGeometry y="26" width="130" height="8" as="geometry" />
        </mxCell>
        <mxCell id="8c5ajKfIK-UFhFimAFkt-5" value="MyShelfie" style="swimlane;fontStyle=1;align=center;verticalAlign=top;childLayout=stackLayout;horizontal=1;startSize=26;horizontalStack=0;resizeParent=1;resizeParentMax=0;resizeLast=0;collapsible=1;marginBottom=0;whiteSpace=wrap;html=1;" vertex="1" parent="WIyWlLk6GJQsqaUBKTNV-1">
          <mxGeometry x="780" y="200" width="160" height="34" as="geometry" />
        </mxCell>
        <mxCell id="8c5ajKfIK-UFhFimAFkt-7" value="" style="line;strokeWidth=1;fillColor=none;align=left;verticalAlign=middle;spacingTop=-1;spacingLeft=3;spacingRight=3;rotatable=0;labelPosition=right;points=[];portConstraint=eastwest;strokeColor=inherit;" vertex="1" parent="8c5ajKfIK-UFhFimAFkt-5">
          <mxGeometry y="26" width="160" height="8" as="geometry" />
        </mxCell>
        <mxCell id="8c5ajKfIK-UFhFimAFkt-9" value="Player" style="swimlane;fontStyle=1;align=center;verticalAlign=top;childLayout=stackLayout;horizontal=1;startSize=26;horizontalStack=0;resizeParent=1;resizeParentMax=0;resizeLast=0;collapsible=1;marginBottom=0;whiteSpace=wrap;html=1;" vertex="1" parent="WIyWlLk6GJQsqaUBKTNV-1">
          <mxGeometry x="260" y="100" width="160" height="34" as="geometry" />
        </mxCell>
        <mxCell id="8c5ajKfIK-UFhFimAFkt-11" value="" style="line;strokeWidth=1;fillColor=none;align=left;verticalAlign=middle;spacingTop=-1;spacingLeft=3;spacingRight=3;rotatable=0;labelPosition=right;points=[];portConstraint=eastwest;strokeColor=inherit;" vertex="1" parent="8c5ajKfIK-UFhFimAFkt-9">
          <mxGeometry y="26" width="160" height="8" as="geometry" />
        </mxCell>
        <mxCell id="8c5ajKfIK-UFhFimAFkt-13" value="BoardGame" style="swimlane;fontStyle=1;align=center;verticalAlign=top;childLayout=stackLayout;horizontal=1;startSize=26;horizontalStack=0;resizeParent=1;resizeParentMax=0;resizeLast=0;collapsible=1;marginBottom=0;whiteSpace=wrap;html=1;" vertex="1" parent="WIyWlLk6GJQsqaUBKTNV-1">
          <mxGeometry x="60" y="310" width="160" height="34" as="geometry" />
        </mxCell>
        <mxCell id="8c5ajKfIK-UFhFimAFkt-15" value="" style="line;strokeWidth=1;fillColor=none;align=left;verticalAlign=middle;spacingTop=-1;spacingLeft=3;spacingRight=3;rotatable=0;labelPosition=right;points=[];portConstraint=eastwest;strokeColor=inherit;" vertex="1" parent="8c5ajKfIK-UFhFimAFkt-13">
          <mxGeometry y="26" width="160" height="8" as="geometry" />
        </mxCell>
        <mxCell id="8c5ajKfIK-UFhFimAFkt-17" value="Game" style="swimlane;fontStyle=1;align=center;verticalAlign=top;childLayout=stackLayout;horizontal=1;startSize=26;horizontalStack=0;resizeParent=1;resizeParentMax=0;resizeLast=0;collapsible=1;marginBottom=0;whiteSpace=wrap;html=1;" vertex="1" parent="WIyWlLk6GJQsqaUBKTNV-1">
          <mxGeometry x="50" y="170" width="160" height="34" as="geometry" />
        </mxCell>
        <mxCell id="8c5ajKfIK-UFhFimAFkt-19" value="" style="line;strokeWidth=1;fillColor=none;align=left;verticalAlign=middle;spacingTop=-1;spacingLeft=3;spacingRight=3;rotatable=0;labelPosition=right;points=[];portConstraint=eastwest;strokeColor=inherit;" vertex="1" parent="8c5ajKfIK-UFhFimAFkt-17">
          <mxGeometry y="26" width="160" height="8" as="geometry" />
        </mxCell>
        <mxCell id="8c5ajKfIK-UFhFimAFkt-21" value="ScoringToken" style="swimlane;fontStyle=1;align=center;verticalAlign=top;childLayout=stackLayout;horizontal=1;startSize=26;horizontalStack=0;resizeParent=1;resizeParentMax=0;resizeLast=0;collapsible=1;marginBottom=0;whiteSpace=wrap;html=1;" vertex="1" parent="WIyWlLk6GJQsqaUBKTNV-1">
          <mxGeometry x="480" y="370" width="160" height="34" as="geometry" />
        </mxCell>
        <mxCell id="8c5ajKfIK-UFhFimAFkt-23" value="" style="line;strokeWidth=1;fillColor=none;align=left;verticalAlign=middle;spacingTop=-1;spacingLeft=3;spacingRight=3;rotatable=0;labelPosition=right;points=[];portConstraint=eastwest;strokeColor=inherit;" vertex="1" parent="8c5ajKfIK-UFhFimAFkt-21">
          <mxGeometry y="26" width="160" height="8" as="geometry" />
        </mxCell>
        <mxCell id="8c5ajKfIK-UFhFimAFkt-25" value="PersonalGoalCard" style="swimlane;fontStyle=1;align=center;verticalAlign=top;childLayout=stackLayout;horizontal=1;startSize=26;horizontalStack=0;resizeParent=1;resizeParentMax=0;resizeLast=0;collapsible=1;marginBottom=0;whiteSpace=wrap;html=1;" vertex="1" parent="WIyWlLk6GJQsqaUBKTNV-1">
          <mxGeometry x="65" y="480" width="160" height="34" as="geometry" />
        </mxCell>
        <mxCell id="8c5ajKfIK-UFhFimAFkt-27" value="" style="line;strokeWidth=1;fillColor=none;align=left;verticalAlign=middle;spacingTop=-1;spacingLeft=3;spacingRight=3;rotatable=0;labelPosition=right;points=[];portConstraint=eastwest;strokeColor=inherit;" vertex="1" parent="8c5ajKfIK-UFhFimAFkt-25">
          <mxGeometry y="26" width="160" height="8" as="geometry" />
        </mxCell>
        <mxCell id="8c5ajKfIK-UFhFimAFkt-29" value="CommonGoalCard" style="swimlane;fontStyle=1;align=center;verticalAlign=top;childLayout=stackLayout;horizontal=1;startSize=26;horizontalStack=0;resizeParent=1;resizeParentMax=0;resizeLast=0;collapsible=1;marginBottom=0;whiteSpace=wrap;html=1;" vertex="1" parent="WIyWlLk6GJQsqaUBKTNV-1">
          <mxGeometry x="320" y="500" width="160" height="34" as="geometry" />
        </mxCell>
        <mxCell id="8c5ajKfIK-UFhFimAFkt-31" value="" style="line;strokeWidth=1;fillColor=none;align=left;verticalAlign=middle;spacingTop=-1;spacingLeft=3;spacingRight=3;rotatable=0;labelPosition=right;points=[];portConstraint=eastwest;strokeColor=inherit;" vertex="1" parent="8c5ajKfIK-UFhFimAFkt-29">
          <mxGeometry y="26" width="160" height="8" as="geometry" />
        </mxCell>
        <mxCell id="8c5ajKfIK-UFhFimAFkt-33" value="PlayerController" style="swimlane;fontStyle=1;align=center;verticalAlign=top;childLayout=stackLayout;horizontal=1;startSize=26;horizontalStack=0;resizeParent=1;resizeParentMax=0;resizeLast=0;collapsible=1;marginBottom=0;whiteSpace=wrap;html=1;" vertex="1" parent="WIyWlLk6GJQsqaUBKTNV-1">
          <mxGeometry x="730" y="30" width="160" height="34" as="geometry" />
        </mxCell>
        <mxCell id="8c5ajKfIK-UFhFimAFkt-35" value="" style="line;strokeWidth=1;fillColor=none;align=left;verticalAlign=middle;spacingTop=-1;spacingLeft=3;spacingRight=3;rotatable=0;labelPosition=right;points=[];portConstraint=eastwest;strokeColor=inherit;" vertex="1" parent="8c5ajKfIK-UFhFimAFkt-33">
          <mxGeometry y="26" width="160" height="8" as="geometry" />
        </mxCell>
        <mxCell id="8c5ajKfIK-UFhFimAFkt-37" value="{abstract}GoalCard" style="swimlane;fontStyle=1;align=center;verticalAlign=top;childLayout=stackLayout;horizontal=1;startSize=26;horizontalStack=0;resizeParent=1;resizeParentMax=0;resizeLast=0;collapsible=1;marginBottom=0;whiteSpace=wrap;html=1;" vertex="1" parent="WIyWlLk6GJQsqaUBKTNV-1">
          <mxGeometry x="270" y="430" width="160" height="34" as="geometry" />
        </mxCell>
        <mxCell id="8c5ajKfIK-UFhFimAFkt-39" value="" style="line;strokeWidth=1;fillColor=none;align=left;verticalAlign=middle;spacingTop=-1;spacingLeft=3;spacingRight=3;rotatable=0;labelPosition=right;points=[];portConstraint=eastwest;strokeColor=inherit;" vertex="1" parent="8c5ajKfIK-UFhFimAFkt-37">
          <mxGeometry y="26" width="160" height="8" as="geometry" />
        </mxCell>
        <mxCell id="8c5ajKfIK-UFhFimAFkt-41" value="GameController" style="swimlane;fontStyle=1;align=center;verticalAlign=top;childLayout=stackLayout;horizontal=1;startSize=26;horizontalStack=0;resizeParent=1;resizeParentMax=0;resizeLast=0;collapsible=1;marginBottom=0;whiteSpace=wrap;html=1;" vertex="1" parent="WIyWlLk6GJQsqaUBKTNV-1">
          <mxGeometry x="970" y="104" width="160" height="34" as="geometry" />
        </mxCell>
        <mxCell id="8c5ajKfIK-UFhFimAFkt-43" value="" style="line;strokeWidth=1;fillColor=none;align=left;verticalAlign=middle;spacingTop=-1;spacingLeft=3;spacingRight=3;rotatable=0;labelPosition=right;points=[];portConstraint=eastwest;strokeColor=inherit;" vertex="1" parent="8c5ajKfIK-UFhFimAFkt-41">
          <mxGeometry y="26" width="160" height="8" as="geometry" />
        </mxCell>
        <mxCell id="8c5ajKfIK-UFhFimAFkt-45" value="ItemTile" style="swimlane;fontStyle=1;align=center;verticalAlign=top;childLayout=stackLayout;horizontal=1;startSize=26;horizontalStack=0;resizeParent=1;resizeParentMax=0;resizeLast=0;collapsible=1;marginBottom=0;whiteSpace=wrap;html=1;" vertex="1" parent="WIyWlLk6GJQsqaUBKTNV-1">
          <mxGeometry x="290" y="276" width="160" height="34" as="geometry" />
        </mxCell>
        <mxCell id="8c5ajKfIK-UFhFimAFkt-47" value="" style="line;strokeWidth=1;fillColor=none;align=left;verticalAlign=middle;spacingTop=-1;spacingLeft=3;spacingRight=3;rotatable=0;labelPosition=right;points=[];portConstraint=eastwest;strokeColor=inherit;" vertex="1" parent="8c5ajKfIK-UFhFimAFkt-45">
          <mxGeometry y="26" width="160" height="8" as="geometry" />
        </mxCell>
        <mxCell id="8c5ajKfIK-UFhFimAFkt-49" value="LobbyManager" style="swimlane;fontStyle=1;align=center;verticalAlign=top;childLayout=stackLayout;horizontal=1;startSize=26;horizontalStack=0;resizeParent=1;resizeParentMax=0;resizeLast=0;collapsible=1;marginBottom=0;whiteSpace=wrap;html=1;" vertex="1" parent="WIyWlLk6GJQsqaUBKTNV-1">
          <mxGeometry x="960" y="450" width="160" height="34" as="geometry" />
        </mxCell>
        <mxCell id="8c5ajKfIK-UFhFimAFkt-51" value="" style="line;strokeWidth=1;fillColor=none;align=left;verticalAlign=middle;spacingTop=-1;spacingLeft=3;spacingRight=3;rotatable=0;labelPosition=right;points=[];portConstraint=eastwest;strokeColor=inherit;" vertex="1" parent="8c5ajKfIK-UFhFimAFkt-49">
          <mxGeometry y="26" width="160" height="8" as="geometry" />
        </mxCell>
        <mxCell id="8c5ajKfIK-UFhFimAFkt-53" value="LobbyController" style="swimlane;fontStyle=1;align=center;verticalAlign=top;childLayout=stackLayout;horizontal=1;startSize=26;horizontalStack=0;resizeParent=1;resizeParentMax=0;resizeLast=0;collapsible=1;marginBottom=0;whiteSpace=wrap;html=1;" vertex="1" parent="WIyWlLk6GJQsqaUBKTNV-1">
          <mxGeometry x="850" y="326" width="160" height="34" as="geometry" />
        </mxCell>
        <mxCell id="8c5ajKfIK-UFhFimAFkt-55" value="" style="line;strokeWidth=1;fillColor=none;align=left;verticalAlign=middle;spacingTop=-1;spacingLeft=3;spacingRight=3;rotatable=0;labelPosition=right;points=[];portConstraint=eastwest;strokeColor=inherit;" vertex="1" parent="8c5ajKfIK-UFhFimAFkt-53">
          <mxGeometry y="26" width="160" height="8" as="geometry" />
        </mxCell>
        <mxCell id="8c5ajKfIK-UFhFimAFkt-57" value="Lobby" style="swimlane;fontStyle=1;align=center;verticalAlign=top;childLayout=stackLayout;horizontal=1;startSize=26;horizontalStack=0;resizeParent=1;resizeParentMax=0;resizeLast=0;collapsible=1;marginBottom=0;whiteSpace=wrap;html=1;" vertex="1" parent="WIyWlLk6GJQsqaUBKTNV-1">
          <mxGeometry x="360" y="210" width="160" height="34" as="geometry" />
        </mxCell>
        <mxCell id="8c5ajKfIK-UFhFimAFkt-59" value="" style="line;strokeWidth=1;fillColor=none;align=left;verticalAlign=middle;spacingTop=-1;spacingLeft=3;spacingRight=3;rotatable=0;labelPosition=right;points=[];portConstraint=eastwest;strokeColor=inherit;" vertex="1" parent="8c5ajKfIK-UFhFimAFkt-57">
          <mxGeometry y="26" width="160" height="8" as="geometry" />
        </mxCell>
        <mxCell id="8c5ajKfIK-UFhFimAFkt-61" value="VirtualLobbyView" style="swimlane;fontStyle=1;align=center;verticalAlign=top;childLayout=stackLayout;horizontal=1;startSize=26;horizontalStack=0;resizeParent=1;resizeParentMax=0;resizeLast=0;collapsible=1;marginBottom=0;whiteSpace=wrap;html=1;" vertex="1" parent="WIyWlLk6GJQsqaUBKTNV-1">
          <mxGeometry x="445" y="750" width="160" height="34" as="geometry" />
        </mxCell>
        <mxCell id="8c5ajKfIK-UFhFimAFkt-63" value="" style="line;strokeWidth=1;fillColor=none;align=left;verticalAlign=middle;spacingTop=-1;spacingLeft=3;spacingRight=3;rotatable=0;labelPosition=right;points=[];portConstraint=eastwest;strokeColor=inherit;" vertex="1" parent="8c5ajKfIK-UFhFimAFkt-61">
          <mxGeometry y="26" width="160" height="8" as="geometry" />
        </mxCell>
        <mxCell id="8c5ajKfIK-UFhFimAFkt-65" value="VirtualPlayerView" style="swimlane;fontStyle=1;align=center;verticalAlign=top;childLayout=stackLayout;horizontal=1;startSize=26;horizontalStack=0;resizeParent=1;resizeParentMax=0;resizeLast=0;collapsible=1;marginBottom=0;whiteSpace=wrap;html=1;" vertex="1" parent="WIyWlLk6GJQsqaUBKTNV-1">
          <mxGeometry x="295" y="694" width="160" height="34" as="geometry" />
        </mxCell>
        <mxCell id="8c5ajKfIK-UFhFimAFkt-67" value="" style="line;strokeWidth=1;fillColor=none;align=left;verticalAlign=middle;spacingTop=-1;spacingLeft=3;spacingRight=3;rotatable=0;labelPosition=right;points=[];portConstraint=eastwest;strokeColor=inherit;" vertex="1" parent="8c5ajKfIK-UFhFimAFkt-65">
          <mxGeometry y="26" width="160" height="8" as="geometry" />
        </mxCell>
        <mxCell id="8c5ajKfIK-UFhFimAFkt-69" value="VirtualGameView" style="swimlane;fontStyle=1;align=center;verticalAlign=top;childLayout=stackLayout;horizontal=1;startSize=26;horizontalStack=0;resizeParent=1;resizeParentMax=0;resizeLast=0;collapsible=1;marginBottom=0;whiteSpace=wrap;html=1;" vertex="1" parent="WIyWlLk6GJQsqaUBKTNV-1">
          <mxGeometry x="55" y="674" width="160" height="34" as="geometry" />
        </mxCell>
        <mxCell id="8c5ajKfIK-UFhFimAFkt-71" value="" style="line;strokeWidth=1;fillColor=none;align=left;verticalAlign=middle;spacingTop=-1;spacingLeft=3;spacingRight=3;rotatable=0;labelPosition=right;points=[];portConstraint=eastwest;strokeColor=inherit;" vertex="1" parent="8c5ajKfIK-UFhFimAFkt-69">
          <mxGeometry y="26" width="160" height="8" as="geometry" />
        </mxCell>
        <mxCell id="8c5ajKfIK-UFhFimAFkt-73" value="ClientManager" style="swimlane;fontStyle=1;align=center;verticalAlign=top;childLayout=stackLayout;horizontal=1;startSize=26;horizontalStack=0;resizeParent=1;resizeParentMax=0;resizeLast=0;collapsible=1;marginBottom=0;whiteSpace=wrap;html=1;" vertex="1" parent="WIyWlLk6GJQsqaUBKTNV-1">
          <mxGeometry x="870" y="860" width="160" height="34" as="geometry" />
        </mxCell>
        <mxCell id="8c5ajKfIK-UFhFimAFkt-75" value="" style="line;strokeWidth=1;fillColor=none;align=left;verticalAlign=middle;spacingTop=-1;spacingLeft=3;spacingRight=3;rotatable=0;labelPosition=right;points=[];portConstraint=eastwest;strokeColor=inherit;" vertex="1" parent="8c5ajKfIK-UFhFimAFkt-73">
          <mxGeometry y="26" width="160" height="8" as="geometry" />
        </mxCell>
        <mxCell id="8c5ajKfIK-UFhFimAFkt-77" value="Server" style="swimlane;fontStyle=1;align=center;verticalAlign=top;childLayout=stackLayout;horizontal=1;startSize=26;horizontalStack=0;resizeParent=1;resizeParentMax=0;resizeLast=0;collapsible=1;marginBottom=0;whiteSpace=wrap;html=1;" vertex="1" parent="WIyWlLk6GJQsqaUBKTNV-1">
          <mxGeometry x="795" y="726" width="160" height="34" as="geometry" />
        </mxCell>
        <mxCell id="8c5ajKfIK-UFhFimAFkt-79" value="" style="line;strokeWidth=1;fillColor=none;align=left;verticalAlign=middle;spacingTop=-1;spacingLeft=3;spacingRight=3;rotatable=0;labelPosition=right;points=[];portConstraint=eastwest;strokeColor=inherit;" vertex="1" parent="8c5ajKfIK-UFhFimAFkt-77">
          <mxGeometry y="26" width="160" height="8" as="geometry" />
        </mxCell>
        <mxCell id="8c5ajKfIK-UFhFimAFkt-81" value="ServerManager" style="swimlane;fontStyle=1;align=center;verticalAlign=top;childLayout=stackLayout;horizontal=1;startSize=26;horizontalStack=0;resizeParent=1;resizeParentMax=0;resizeLast=0;collapsible=1;marginBottom=0;whiteSpace=wrap;html=1;" vertex="1" parent="WIyWlLk6GJQsqaUBKTNV-1">
          <mxGeometry x="680" y="600" width="160" height="34" as="geometry" />
        </mxCell>
        <mxCell id="8c5ajKfIK-UFhFimAFkt-83" value="" style="line;strokeWidth=1;fillColor=none;align=left;verticalAlign=middle;spacingTop=-1;spacingLeft=3;spacingRight=3;rotatable=0;labelPosition=right;points=[];portConstraint=eastwest;strokeColor=inherit;" vertex="1" parent="8c5ajKfIK-UFhFimAFkt-81">
          <mxGeometry y="26" width="160" height="8" as="geometry" />
        </mxCell>
        <mxCell id="8c5ajKfIK-UFhFimAFkt-85" value="" style="endArrow=none;endFill=0;endSize=24;html=1;rounded=0;exitX=1;exitY=0;exitDx=0;exitDy=0;entryX=0.25;entryY=0;entryDx=0;entryDy=0;" edge="1" parent="WIyWlLk6GJQsqaUBKTNV-1" source="8c5ajKfIK-UFhFimAFkt-1" target="8c5ajKfIK-UFhFimAFkt-9">
          <mxGeometry width="160" relative="1" as="geometry">
            <mxPoint x="120" y="82.63" as="sourcePoint" />
            <mxPoint x="280" y="82.63" as="targetPoint" />
            <Array as="points">
              <mxPoint x="300" y="30" />
            </Array>
          </mxGeometry>
        </mxCell>
        <mxCell id="8c5ajKfIK-UFhFimAFkt-86" value="owns" style="text;html=1;align=center;verticalAlign=middle;resizable=0;points=[];autosize=1;strokeColor=none;fillColor=none;" vertex="1" parent="WIyWlLk6GJQsqaUBKTNV-1">
          <mxGeometry x="250" y="8" width="50" height="30" as="geometry" />
        </mxCell>
        <mxCell id="8c5ajKfIK-UFhFimAFkt-87" value="1" style="text;html=1;align=center;verticalAlign=middle;resizable=0;points=[];autosize=1;strokeColor=none;fillColor=none;" vertex="1" parent="WIyWlLk6GJQsqaUBKTNV-1">
          <mxGeometry x="170" y="32" width="30" height="30" as="geometry" />
        </mxCell>
        <mxCell id="8c5ajKfIK-UFhFimAFkt-88" value="1" style="text;html=1;align=center;verticalAlign=middle;resizable=0;points=[];autosize=1;strokeColor=none;fillColor=none;" vertex="1" parent="WIyWlLk6GJQsqaUBKTNV-1">
          <mxGeometry x="290" y="70" width="30" height="30" as="geometry" />
        </mxCell>
        <mxCell id="8c5ajKfIK-UFhFimAFkt-89" value="" style="endArrow=diamondThin;endFill=1;endSize=24;html=1;rounded=0;exitX=0;exitY=0.5;exitDx=0;exitDy=0;entryX=0.5;entryY=0;entryDx=0;entryDy=0;" edge="1" parent="WIyWlLk6GJQsqaUBKTNV-1" source="8c5ajKfIK-UFhFimAFkt-9" target="8c5ajKfIK-UFhFimAFkt-17">
          <mxGeometry width="160" relative="1" as="geometry">
            <mxPoint x="170" y="134" as="sourcePoint" />
            <mxPoint x="355" y="170" as="targetPoint" />
            <Array as="points">
              <mxPoint x="130" y="117" />
            </Array>
          </mxGeometry>
        </mxCell>
        <mxCell id="8c5ajKfIK-UFhFimAFkt-90" value="1" style="text;html=1;align=center;verticalAlign=middle;resizable=0;points=[];autosize=1;strokeColor=none;fillColor=none;" vertex="1" parent="WIyWlLk6GJQsqaUBKTNV-1">
          <mxGeometry x="75" y="138" width="30" height="30" as="geometry" />
        </mxCell>
        <mxCell id="8c5ajKfIK-UFhFimAFkt-91" value="1..4" style="text;html=1;align=center;verticalAlign=middle;resizable=0;points=[];autosize=1;strokeColor=none;fillColor=none;" vertex="1" parent="WIyWlLk6GJQsqaUBKTNV-1">
          <mxGeometry x="220" y="88" width="40" height="30" as="geometry" />
        </mxCell>
        <mxCell id="8c5ajKfIK-UFhFimAFkt-92" value="" style="endArrow=diamondThin;endFill=1;endSize=24;html=1;rounded=0;entryX=0;entryY=0.25;entryDx=0;entryDy=0;" edge="1" parent="WIyWlLk6GJQsqaUBKTNV-1" target="8c5ajKfIK-UFhFimAFkt-17">
          <mxGeometry width="160" relative="1" as="geometry">
            <mxPoint x="60" y="320" as="sourcePoint" />
            <mxPoint x="35" y="210" as="targetPoint" />
            <Array as="points">
              <mxPoint x="20" y="320" />
              <mxPoint x="20" y="180" />
            </Array>
          </mxGeometry>
        </mxCell>
        <mxCell id="8c5ajKfIK-UFhFimAFkt-93" value="1" style="text;html=1;align=center;verticalAlign=middle;resizable=0;points=[];autosize=1;strokeColor=none;fillColor=none;" vertex="1" parent="WIyWlLk6GJQsqaUBKTNV-1">
          <mxGeometry x="15" y="138" width="30" height="30" as="geometry" />
        </mxCell>
        <mxCell id="8c5ajKfIK-UFhFimAFkt-94" value="1" style="text;html=1;align=center;verticalAlign=middle;resizable=0;points=[];autosize=1;strokeColor=none;fillColor=none;" vertex="1" parent="WIyWlLk6GJQsqaUBKTNV-1">
          <mxGeometry x="35" y="288" width="30" height="30" as="geometry" />
        </mxCell>
        <mxCell id="8c5ajKfIK-UFhFimAFkt-95" value="" style="endArrow=open;endFill=0;endSize=24;html=1;rounded=0;exitX=0.25;exitY=0;exitDx=0;exitDy=0;entryX=0.75;entryY=0;entryDx=0;entryDy=0;" edge="1" parent="WIyWlLk6GJQsqaUBKTNV-1" source="8c5ajKfIK-UFhFimAFkt-13" target="8c5ajKfIK-UFhFimAFkt-13">
          <mxGeometry width="160" relative="1" as="geometry">
            <mxPoint x="160" y="377" as="sourcePoint" />
            <mxPoint x="15" y="430" as="targetPoint" />
            <Array as="points">
              <mxPoint x="100" y="260" />
              <mxPoint x="180" y="260" />
            </Array>
          </mxGeometry>
        </mxCell>
        <mxCell id="8c5ajKfIK-UFhFimAFkt-96" value="" style="endArrow=none;endFill=0;endSize=24;html=1;rounded=0;exitX=0.719;exitY=-0.035;exitDx=0;exitDy=0;entryX=0;entryY=0.5;entryDx=0;entryDy=0;exitPerimeter=0;" edge="1" parent="WIyWlLk6GJQsqaUBKTNV-1" source="8c5ajKfIK-UFhFimAFkt-9" target="8c5ajKfIK-UFhFimAFkt-33">
          <mxGeometry width="160" relative="1" as="geometry">
            <mxPoint x="630" y="60" as="sourcePoint" />
            <mxPoint x="760" y="130" as="targetPoint" />
            <Array as="points">
              <mxPoint x="375" y="47" />
            </Array>
          </mxGeometry>
        </mxCell>
        <mxCell id="8c5ajKfIK-UFhFimAFkt-97" value="1" style="text;html=1;align=center;verticalAlign=middle;resizable=0;points=[];autosize=1;strokeColor=none;fillColor=none;" vertex="1" parent="WIyWlLk6GJQsqaUBKTNV-1">
          <mxGeometry x="375" y="68" width="30" height="30" as="geometry" />
        </mxCell>
        <mxCell id="8c5ajKfIK-UFhFimAFkt-98" value="1" style="text;html=1;align=center;verticalAlign=middle;resizable=0;points=[];autosize=1;strokeColor=none;fillColor=none;" vertex="1" parent="WIyWlLk6GJQsqaUBKTNV-1">
          <mxGeometry x="690" y="20" width="30" height="30" as="geometry" />
        </mxCell>
        <mxCell id="8c5ajKfIK-UFhFimAFkt-99" value="" style="endArrow=none;endFill=0;endSize=24;html=1;rounded=0;exitX=1;exitY=0.5;exitDx=0;exitDy=0;entryX=0.5;entryY=0;entryDx=0;entryDy=0;" edge="1" parent="WIyWlLk6GJQsqaUBKTNV-1" source="8c5ajKfIK-UFhFimAFkt-33" target="8c5ajKfIK-UFhFimAFkt-41">
          <mxGeometry width="160" relative="1" as="geometry">
            <mxPoint x="1020" y="50" as="sourcePoint" />
            <mxPoint x="1150" y="120" as="targetPoint" />
            <Array as="points">
              <mxPoint x="1050" y="47" />
              <mxPoint x="1050" y="80" />
            </Array>
          </mxGeometry>
        </mxCell>
        <mxCell id="8c5ajKfIK-UFhFimAFkt-100" value="1..4" style="text;html=1;align=center;verticalAlign=middle;resizable=0;points=[];autosize=1;strokeColor=none;fillColor=none;" vertex="1" parent="WIyWlLk6GJQsqaUBKTNV-1">
          <mxGeometry x="890" y="18" width="40" height="30" as="geometry" />
        </mxCell>
        <mxCell id="8c5ajKfIK-UFhFimAFkt-101" value="1" style="text;html=1;align=center;verticalAlign=middle;resizable=0;points=[];autosize=1;strokeColor=none;fillColor=none;" vertex="1" parent="WIyWlLk6GJQsqaUBKTNV-1">
          <mxGeometry x="1055" y="78" width="30" height="30" as="geometry" />
        </mxCell>
        <mxCell id="8c5ajKfIK-UFhFimAFkt-102" value="" style="endArrow=none;endFill=0;endSize=24;html=1;rounded=0;exitX=1;exitY=0.25;exitDx=0;exitDy=0;entryX=0;entryY=0.5;entryDx=0;entryDy=0;" edge="1" parent="WIyWlLk6GJQsqaUBKTNV-1" source="8c5ajKfIK-UFhFimAFkt-17" target="8c5ajKfIK-UFhFimAFkt-41">
          <mxGeometry width="160" relative="1" as="geometry">
            <mxPoint x="510" y="170" as="sourcePoint" />
            <mxPoint x="640" y="240" as="targetPoint" />
            <Array as="points">
              <mxPoint x="640" y="180" />
              <mxPoint x="790" y="120" />
            </Array>
          </mxGeometry>
        </mxCell>
        <mxCell id="8c5ajKfIK-UFhFimAFkt-103" value="1" style="text;html=1;align=center;verticalAlign=middle;resizable=0;points=[];autosize=1;strokeColor=none;fillColor=none;" vertex="1" parent="WIyWlLk6GJQsqaUBKTNV-1">
          <mxGeometry x="925" y="88" width="30" height="30" as="geometry" />
        </mxCell>
        <mxCell id="8c5ajKfIK-UFhFimAFkt-104" value="1" style="text;html=1;align=center;verticalAlign=middle;resizable=0;points=[];autosize=1;strokeColor=none;fillColor=none;" vertex="1" parent="WIyWlLk6GJQsqaUBKTNV-1">
          <mxGeometry x="210" y="150" width="30" height="30" as="geometry" />
        </mxCell>
        <mxCell id="8c5ajKfIK-UFhFimAFkt-105" value="" style="endArrow=diamondThin;endFill=1;endSize=24;html=1;rounded=0;exitX=1;exitY=0.25;exitDx=0;exitDy=0;entryX=0.313;entryY=0;entryDx=0;entryDy=0;entryPerimeter=0;" edge="1" parent="WIyWlLk6GJQsqaUBKTNV-1" source="8c5ajKfIK-UFhFimAFkt-45" target="8c5ajKfIK-UFhFimAFkt-5">
          <mxGeometry width="160" relative="1" as="geometry">
            <mxPoint x="620" y="268" as="sourcePoint" />
            <mxPoint x="750" y="338" as="targetPoint" />
            <Array as="points">
              <mxPoint x="590" y="268" />
              <mxPoint x="710" y="200" />
              <mxPoint x="770" y="180" />
              <mxPoint x="810" y="180" />
              <mxPoint x="830" y="180" />
            </Array>
          </mxGeometry>
        </mxCell>
        <mxCell id="8c5ajKfIK-UFhFimAFkt-106" value="" style="endArrow=diamondThin;endFill=1;endSize=24;html=1;rounded=0;exitX=0.5;exitY=0;exitDx=0;exitDy=0;" edge="1" parent="WIyWlLk6GJQsqaUBKTNV-1" source="8c5ajKfIK-UFhFimAFkt-37">
          <mxGeometry width="160" relative="1" as="geometry">
            <mxPoint x="530" y="280" as="sourcePoint" />
            <mxPoint x="780" y="210" as="targetPoint" />
            <Array as="points">
              <mxPoint x="350" y="360" />
              <mxPoint x="590" y="290" />
              <mxPoint x="720" y="210" />
            </Array>
          </mxGeometry>
        </mxCell>
        <mxCell id="8c5ajKfIK-UFhFimAFkt-107" value="" style="endArrow=diamondThin;endFill=1;endSize=24;html=1;rounded=0;exitX=0.5;exitY=0;exitDx=0;exitDy=0;entryX=0;entryY=0.75;entryDx=0;entryDy=0;" edge="1" parent="WIyWlLk6GJQsqaUBKTNV-1" source="8c5ajKfIK-UFhFimAFkt-21" target="8c5ajKfIK-UFhFimAFkt-5">
          <mxGeometry width="160" relative="1" as="geometry">
            <mxPoint x="620" y="248" as="sourcePoint" />
            <mxPoint x="750" y="318" as="targetPoint" />
            <Array as="points">
              <mxPoint x="590" y="310" />
              <mxPoint x="730" y="226" />
            </Array>
          </mxGeometry>
        </mxCell>
        <mxCell id="8c5ajKfIK-UFhFimAFkt-108" value="1" style="text;html=1;align=center;verticalAlign=middle;resizable=0;points=[];autosize=1;strokeColor=none;fillColor=none;" vertex="1" parent="WIyWlLk6GJQsqaUBKTNV-1">
          <mxGeometry x="835" y="148" width="30" height="30" as="geometry" />
        </mxCell>
        <mxCell id="8c5ajKfIK-UFhFimAFkt-109" value="1" style="text;html=1;align=center;verticalAlign=middle;resizable=0;points=[];autosize=1;strokeColor=none;fillColor=none;" vertex="1" parent="WIyWlLk6GJQsqaUBKTNV-1">
          <mxGeometry x="735" y="228" width="30" height="30" as="geometry" />
        </mxCell>
        <mxCell id="8c5ajKfIK-UFhFimAFkt-110" value="1" style="text;html=1;align=center;verticalAlign=middle;resizable=0;points=[];autosize=1;strokeColor=none;fillColor=none;" vertex="1" parent="WIyWlLk6GJQsqaUBKTNV-1">
          <mxGeometry x="745" y="178" width="30" height="30" as="geometry" />
        </mxCell>
        <mxCell id="8c5ajKfIK-UFhFimAFkt-111" value="8" style="text;html=1;align=center;verticalAlign=middle;resizable=0;points=[];autosize=1;strokeColor=none;fillColor=none;" vertex="1" parent="WIyWlLk6GJQsqaUBKTNV-1">
          <mxGeometry x="575" y="348" width="30" height="30" as="geometry" />
        </mxCell>
        <mxCell id="8c5ajKfIK-UFhFimAFkt-112" value="1..24" style="text;html=1;align=center;verticalAlign=middle;resizable=0;points=[];autosize=1;strokeColor=none;fillColor=none;" vertex="1" parent="WIyWlLk6GJQsqaUBKTNV-1">
          <mxGeometry x="345" y="398" width="50" height="30" as="geometry" />
        </mxCell>
        <mxCell id="8c5ajKfIK-UFhFimAFkt-113" value="1..132" style="text;html=1;align=center;verticalAlign=middle;resizable=0;points=[];autosize=1;strokeColor=none;fillColor=none;" vertex="1" parent="WIyWlLk6GJQsqaUBKTNV-1">
          <mxGeometry x="410" y="248" width="60" height="30" as="geometry" />
        </mxCell>
        <mxCell id="8c5ajKfIK-UFhFimAFkt-115" value="" style="endArrow=none;endFill=0;endSize=24;html=1;rounded=0;exitX=1;exitY=0.25;exitDx=0;exitDy=0;entryX=0.807;entryY=0.025;entryDx=0;entryDy=0;entryPerimeter=0;startArrow=block;startFill=0;" edge="1" parent="WIyWlLk6GJQsqaUBKTNV-1" source="8c5ajKfIK-UFhFimAFkt-37" target="8c5ajKfIK-UFhFimAFkt-29">
          <mxGeometry width="160" relative="1" as="geometry">
            <mxPoint x="320" y="520" as="sourcePoint" />
            <mxPoint x="450" y="590" as="targetPoint" />
            <Array as="points">
              <mxPoint x="450" y="439" />
            </Array>
          </mxGeometry>
        </mxCell>
        <mxCell id="8c5ajKfIK-UFhFimAFkt-116" value="" style="endArrow=none;endFill=0;endSize=24;html=1;rounded=0;exitX=0;exitY=0.25;exitDx=0;exitDy=0;startArrow=block;startFill=0;entryX=0.635;entryY=0.009;entryDx=0;entryDy=0;entryPerimeter=0;" edge="1" parent="WIyWlLk6GJQsqaUBKTNV-1" source="8c5ajKfIK-UFhFimAFkt-37" target="8c5ajKfIK-UFhFimAFkt-25">
          <mxGeometry width="160" relative="1" as="geometry">
            <mxPoint x="160" y="480" as="sourcePoint" />
            <mxPoint x="179" y="520" as="targetPoint" />
            <Array as="points">
              <mxPoint x="167" y="440" />
            </Array>
          </mxGeometry>
        </mxCell>
        <mxCell id="8c5ajKfIK-UFhFimAFkt-117" value="" style="endArrow=none;endFill=0;endSize=24;html=1;rounded=0;exitX=1;exitY=0.25;exitDx=0;exitDy=0;entryX=0;entryY=0.5;entryDx=0;entryDy=0;startArrow=none;startFill=0;" edge="1" parent="WIyWlLk6GJQsqaUBKTNV-1" source="8c5ajKfIK-UFhFimAFkt-57" target="8c5ajKfIK-UFhFimAFkt-53">
          <mxGeometry width="160" relative="1" as="geometry">
            <mxPoint x="690" y="280" as="sourcePoint" />
            <mxPoint x="709" y="402" as="targetPoint" />
            <Array as="points">
              <mxPoint x="710" y="280" />
            </Array>
          </mxGeometry>
        </mxCell>
        <mxCell id="8c5ajKfIK-UFhFimAFkt-119" value="1" style="text;html=1;align=center;verticalAlign=middle;resizable=0;points=[];autosize=1;strokeColor=none;fillColor=none;" vertex="1" parent="WIyWlLk6GJQsqaUBKTNV-1">
          <mxGeometry x="515" y="188" width="30" height="30" as="geometry" />
        </mxCell>
        <mxCell id="8c5ajKfIK-UFhFimAFkt-120" value="1" style="text;html=1;align=center;verticalAlign=middle;resizable=0;points=[];autosize=1;strokeColor=none;fillColor=none;" vertex="1" parent="WIyWlLk6GJQsqaUBKTNV-1">
          <mxGeometry x="820" y="310" width="30" height="30" as="geometry" />
        </mxCell>
        <mxCell id="8c5ajKfIK-UFhFimAFkt-121" value="" style="endArrow=none;endFill=0;endSize=24;html=1;rounded=0;exitX=1;exitY=0.5;exitDx=0;exitDy=0;startArrow=none;startFill=0;" edge="1" parent="WIyWlLk6GJQsqaUBKTNV-1" source="8c5ajKfIK-UFhFimAFkt-53">
          <mxGeometry width="160" relative="1" as="geometry">
            <mxPoint x="790" y="410" as="sourcePoint" />
            <mxPoint x="1090" y="450" as="targetPoint" />
            <Array as="points">
              <mxPoint x="1090" y="343" />
            </Array>
          </mxGeometry>
        </mxCell>
        <mxCell id="8c5ajKfIK-UFhFimAFkt-122" value="1" style="text;html=1;align=center;verticalAlign=middle;resizable=0;points=[];autosize=1;strokeColor=none;fillColor=none;" vertex="1" parent="WIyWlLk6GJQsqaUBKTNV-1">
          <mxGeometry x="1095" y="418" width="30" height="30" as="geometry" />
        </mxCell>
        <mxCell id="8c5ajKfIK-UFhFimAFkt-123" value="1..n" style="text;html=1;align=center;verticalAlign=middle;resizable=0;points=[];autosize=1;strokeColor=none;fillColor=none;" vertex="1" parent="WIyWlLk6GJQsqaUBKTNV-1">
          <mxGeometry x="1010" y="310" width="40" height="30" as="geometry" />
        </mxCell>
        <mxCell id="8c5ajKfIK-UFhFimAFkt-124" value="" style="endArrow=none;endFill=0;endSize=24;html=1;rounded=0;exitX=1;exitY=0.25;exitDx=0;exitDy=0;startArrow=none;startFill=0;" edge="1" parent="WIyWlLk6GJQsqaUBKTNV-1" source="8c5ajKfIK-UFhFimAFkt-9">
          <mxGeometry width="160" relative="1" as="geometry">
            <mxPoint x="490" y="110" as="sourcePoint" />
            <mxPoint x="490" y="210" as="targetPoint" />
            <Array as="points">
              <mxPoint x="490" y="110" />
            </Array>
          </mxGeometry>
        </mxCell>
        <mxCell id="8c5ajKfIK-UFhFimAFkt-125" value="1" style="text;html=1;align=center;verticalAlign=middle;resizable=0;points=[];autosize=1;strokeColor=none;fillColor=none;" vertex="1" parent="WIyWlLk6GJQsqaUBKTNV-1">
          <mxGeometry x="420" y="78" width="30" height="30" as="geometry" />
        </mxCell>
        <mxCell id="8c5ajKfIK-UFhFimAFkt-126" value="1" style="text;html=1;align=center;verticalAlign=middle;resizable=0;points=[];autosize=1;strokeColor=none;fillColor=none;" vertex="1" parent="WIyWlLk6GJQsqaUBKTNV-1">
          <mxGeometry x="455" y="178" width="30" height="30" as="geometry" />
        </mxCell>
        <mxCell id="8c5ajKfIK-UFhFimAFkt-127" value="" style="endArrow=diamondThin;endFill=1;endSize=24;html=1;rounded=0;entryX=0.899;entryY=-0.037;entryDx=0;entryDy=0;entryPerimeter=0;startArrow=none;startFill=0;exitX=1;exitY=0.588;exitDx=0;exitDy=0;exitPerimeter=0;" edge="1" parent="WIyWlLk6GJQsqaUBKTNV-1" source="8c5ajKfIK-UFhFimAFkt-49" target="8c5ajKfIK-UFhFimAFkt-77">
          <mxGeometry width="160" relative="1" as="geometry">
            <mxPoint x="1120" y="467" as="sourcePoint" />
            <mxPoint x="1019" y="772" as="targetPoint" />
            <Array as="points">
              <mxPoint x="1160" y="470" />
              <mxPoint x="1160" y="650" />
              <mxPoint x="939" y="650" />
            </Array>
          </mxGeometry>
        </mxCell>
        <mxCell id="8c5ajKfIK-UFhFimAFkt-128" value="1" style="text;html=1;align=center;verticalAlign=middle;resizable=0;points=[];autosize=1;strokeColor=none;fillColor=none;" vertex="1" parent="WIyWlLk6GJQsqaUBKTNV-1">
          <mxGeometry x="935" y="688" width="30" height="30" as="geometry" />
        </mxCell>
        <mxCell id="8c5ajKfIK-UFhFimAFkt-129" value="1" style="text;html=1;align=center;verticalAlign=middle;resizable=0;points=[];autosize=1;strokeColor=none;fillColor=none;" vertex="1" parent="WIyWlLk6GJQsqaUBKTNV-1">
          <mxGeometry x="1115" y="478" width="30" height="30" as="geometry" />
        </mxCell>
        <mxCell id="8c5ajKfIK-UFhFimAFkt-130" value="" style="endArrow=none;endFill=0;endSize=24;html=1;rounded=0;exitX=1;exitY=0.5;exitDx=0;exitDy=0;startArrow=none;startFill=0;entryX=0.54;entryY=0.018;entryDx=0;entryDy=0;entryPerimeter=0;" edge="1" parent="WIyWlLk6GJQsqaUBKTNV-1" source="8c5ajKfIK-UFhFimAFkt-81" target="8c5ajKfIK-UFhFimAFkt-77">
          <mxGeometry width="160" relative="1" as="geometry">
            <mxPoint x="720" y="710" as="sourcePoint" />
            <mxPoint x="880" y="720" as="targetPoint" />
            <Array as="points">
              <mxPoint x="881" y="617" />
            </Array>
          </mxGeometry>
        </mxCell>
        <mxCell id="8c5ajKfIK-UFhFimAFkt-131" value="1" style="text;html=1;align=center;verticalAlign=middle;resizable=0;points=[];autosize=1;strokeColor=none;fillColor=none;" vertex="1" parent="WIyWlLk6GJQsqaUBKTNV-1">
          <mxGeometry x="855" y="698" width="30" height="30" as="geometry" />
        </mxCell>
        <mxCell id="8c5ajKfIK-UFhFimAFkt-132" value="1..n" style="text;html=1;align=center;verticalAlign=middle;resizable=0;points=[];autosize=1;strokeColor=none;fillColor=none;" vertex="1" parent="WIyWlLk6GJQsqaUBKTNV-1">
          <mxGeometry x="835" y="588" width="40" height="30" as="geometry" />
        </mxCell>
        <mxCell id="8c5ajKfIK-UFhFimAFkt-133" value="" style="endArrow=none;endFill=0;endSize=24;html=1;rounded=0;entryX=0.75;entryY=0;entryDx=0;entryDy=0;startArrow=none;startFill=0;exitX=1;exitY=0.25;exitDx=0;exitDy=0;" edge="1" parent="WIyWlLk6GJQsqaUBKTNV-1" source="8c5ajKfIK-UFhFimAFkt-77" target="8c5ajKfIK-UFhFimAFkt-73">
          <mxGeometry width="160" relative="1" as="geometry">
            <mxPoint x="960" y="734" as="sourcePoint" />
            <mxPoint x="939" y="942" as="targetPoint" />
            <Array as="points">
              <mxPoint x="990" y="734" />
            </Array>
          </mxGeometry>
        </mxCell>
        <mxCell id="8c5ajKfIK-UFhFimAFkt-135" value="1" style="text;html=1;align=center;verticalAlign=middle;resizable=0;points=[];autosize=1;strokeColor=none;fillColor=none;" vertex="1" parent="WIyWlLk6GJQsqaUBKTNV-1">
          <mxGeometry x="965" y="708" width="30" height="30" as="geometry" />
        </mxCell>
        <mxCell id="8c5ajKfIK-UFhFimAFkt-136" value="1..n" style="text;html=1;align=center;verticalAlign=middle;resizable=0;points=[];autosize=1;strokeColor=none;fillColor=none;" vertex="1" parent="WIyWlLk6GJQsqaUBKTNV-1">
          <mxGeometry x="990" y="830" width="40" height="30" as="geometry" />
        </mxCell>
        <mxCell id="8c5ajKfIK-UFhFimAFkt-137" value="" style="endArrow=diamondThin;endFill=1;endSize=24;html=1;rounded=0;exitX=0.5;exitY=0;exitDx=0;exitDy=0;entryX=0;entryY=0;entryDx=0;entryDy=0;startArrow=none;startFill=0;" edge="1" parent="WIyWlLk6GJQsqaUBKTNV-1" source="8c5ajKfIK-UFhFimAFkt-65" target="8c5ajKfIK-UFhFimAFkt-81">
          <mxGeometry width="160" relative="1" as="geometry">
            <mxPoint x="550" y="670" as="sourcePoint" />
            <mxPoint x="569" y="792" as="targetPoint" />
            <Array as="points">
              <mxPoint x="400" y="650" />
              <mxPoint x="610" y="600" />
            </Array>
          </mxGeometry>
        </mxCell>
        <mxCell id="8c5ajKfIK-UFhFimAFkt-138" value="" style="endArrow=diamondThin;endFill=1;endSize=24;html=1;rounded=0;entryX=0;entryY=0.5;entryDx=0;entryDy=0;startArrow=none;startFill=0;" edge="1" parent="WIyWlLk6GJQsqaUBKTNV-1" target="8c5ajKfIK-UFhFimAFkt-81">
          <mxGeometry width="160" relative="1" as="geometry">
            <mxPoint x="530" y="750" as="sourcePoint" />
            <mxPoint x="629" y="892" as="targetPoint" />
            <Array as="points">
              <mxPoint x="550" y="720" />
            </Array>
          </mxGeometry>
        </mxCell>
        <mxCell id="8c5ajKfIK-UFhFimAFkt-139" value="" style="endArrow=diamondThin;endFill=1;endSize=24;html=1;rounded=0;entryX=0.553;entryY=-0.035;entryDx=0;entryDy=0;entryPerimeter=0;startArrow=none;startFill=0;exitX=0.46;exitY=0.049;exitDx=0;exitDy=0;exitPerimeter=0;" edge="1" parent="WIyWlLk6GJQsqaUBKTNV-1" source="8c5ajKfIK-UFhFimAFkt-69" target="8c5ajKfIK-UFhFimAFkt-81">
          <mxGeometry width="160" relative="1" as="geometry">
            <mxPoint x="150" y="680" as="sourcePoint" />
            <mxPoint x="564" y="718" as="targetPoint" />
            <Array as="points">
              <mxPoint x="155" y="650" />
              <mxPoint x="560" y="560" />
              <mxPoint x="770" y="560" />
            </Array>
          </mxGeometry>
        </mxCell>
        <mxCell id="8c5ajKfIK-UFhFimAFkt-140" value="1" style="text;html=1;align=center;verticalAlign=middle;resizable=0;points=[];autosize=1;strokeColor=none;fillColor=none;" vertex="1" parent="WIyWlLk6GJQsqaUBKTNV-1">
          <mxGeometry x="725" y="568" width="30" height="30" as="geometry" />
        </mxCell>
        <mxCell id="8c5ajKfIK-UFhFimAFkt-141" value="1" style="text;html=1;align=center;verticalAlign=middle;resizable=0;points=[];autosize=1;strokeColor=none;fillColor=none;" vertex="1" parent="WIyWlLk6GJQsqaUBKTNV-1">
          <mxGeometry x="355" y="658" width="30" height="30" as="geometry" />
        </mxCell>
        <mxCell id="8c5ajKfIK-UFhFimAFkt-142" value="1" style="text;html=1;align=center;verticalAlign=middle;resizable=0;points=[];autosize=1;strokeColor=none;fillColor=none;" vertex="1" parent="WIyWlLk6GJQsqaUBKTNV-1">
          <mxGeometry x="550" y="718" width="30" height="30" as="geometry" />
        </mxCell>
        <mxCell id="8c5ajKfIK-UFhFimAFkt-143" value="1" style="text;html=1;align=center;verticalAlign=middle;resizable=0;points=[];autosize=1;strokeColor=none;fillColor=none;" vertex="1" parent="WIyWlLk6GJQsqaUBKTNV-1">
          <mxGeometry x="125" y="634" width="30" height="30" as="geometry" />
        </mxCell>
        <mxCell id="8c5ajKfIK-UFhFimAFkt-144" value="1" style="text;html=1;align=center;verticalAlign=middle;resizable=0;points=[];autosize=1;strokeColor=none;fillColor=none;" vertex="1" parent="WIyWlLk6GJQsqaUBKTNV-1">
          <mxGeometry x="635" y="568" width="30" height="30" as="geometry" />
        </mxCell>
        <mxCell id="8c5ajKfIK-UFhFimAFkt-145" value="1" style="text;html=1;align=center;verticalAlign=middle;resizable=0;points=[];autosize=1;strokeColor=none;fillColor=none;" vertex="1" parent="WIyWlLk6GJQsqaUBKTNV-1">
          <mxGeometry x="655" y="628" width="30" height="30" as="geometry" />
        </mxCell>
        <mxCell id="8c5ajKfIK-UFhFimAFkt-146" value="" style="endArrow=none;endFill=0;endSize=24;html=1;rounded=0;entryX=0.188;entryY=-0.062;entryDx=0;entryDy=0;entryPerimeter=0;startArrow=diamondThin;startFill=1;" edge="1" parent="WIyWlLk6GJQsqaUBKTNV-1" target="8c5ajKfIK-UFhFimAFkt-81">
          <mxGeometry width="160" relative="1" as="geometry">
            <mxPoint x="420" y="120" as="sourcePoint" />
            <mxPoint x="669" y="582" as="targetPoint" />
            <Array as="points">
              <mxPoint x="710" y="120" />
            </Array>
          </mxGeometry>
        </mxCell>
        <mxCell id="8c5ajKfIK-UFhFimAFkt-147" value="1" style="text;html=1;align=center;verticalAlign=middle;resizable=0;points=[];autosize=1;strokeColor=none;fillColor=none;" vertex="1" parent="WIyWlLk6GJQsqaUBKTNV-1">
          <mxGeometry x="415" y="118" width="30" height="30" as="geometry" />
        </mxCell>
        <mxCell id="8c5ajKfIK-UFhFimAFkt-148" value="1" style="text;html=1;align=center;verticalAlign=middle;resizable=0;points=[];autosize=1;strokeColor=none;fillColor=none;" vertex="1" parent="WIyWlLk6GJQsqaUBKTNV-1">
          <mxGeometry x="685" y="568" width="30" height="30" as="geometry" />
        </mxCell>
        <mxCell id="8c5ajKfIK-UFhFimAFkt-149" value="LobbyHandler" style="swimlane;fontStyle=1;align=center;verticalAlign=top;childLayout=stackLayout;horizontal=1;startSize=26;horizontalStack=0;resizeParent=1;resizeParentMax=0;resizeLast=0;collapsible=1;marginBottom=0;whiteSpace=wrap;html=1;" vertex="1" parent="WIyWlLk6GJQsqaUBKTNV-1">
          <mxGeometry x="10" y="990" width="160" height="34" as="geometry" />
        </mxCell>
        <mxCell id="8c5ajKfIK-UFhFimAFkt-151" value="" style="line;strokeWidth=1;fillColor=none;align=left;verticalAlign=middle;spacingTop=-1;spacingLeft=3;spacingRight=3;rotatable=0;labelPosition=right;points=[];portConstraint=eastwest;strokeColor=inherit;" vertex="1" parent="8c5ajKfIK-UFhFimAFkt-149">
          <mxGeometry y="26" width="160" height="8" as="geometry" />
        </mxCell>
        <mxCell id="8c5ajKfIK-UFhFimAFkt-153" value="GameHandler" style="swimlane;fontStyle=1;align=center;verticalAlign=top;childLayout=stackLayout;horizontal=1;startSize=26;horizontalStack=0;resizeParent=1;resizeParentMax=0;resizeLast=0;collapsible=1;marginBottom=0;whiteSpace=wrap;html=1;" vertex="1" parent="WIyWlLk6GJQsqaUBKTNV-1">
          <mxGeometry x="170" y="890" width="160" height="34" as="geometry" />
        </mxCell>
        <mxCell id="8c5ajKfIK-UFhFimAFkt-155" value="" style="line;strokeWidth=1;fillColor=none;align=left;verticalAlign=middle;spacingTop=-1;spacingLeft=3;spacingRight=3;rotatable=0;labelPosition=right;points=[];portConstraint=eastwest;strokeColor=inherit;" vertex="1" parent="8c5ajKfIK-UFhFimAFkt-153">
          <mxGeometry y="26" width="160" height="8" as="geometry" />
        </mxCell>
        <mxCell id="8c5ajKfIK-UFhFimAFkt-157" value="LoginHandler" style="swimlane;fontStyle=1;align=center;verticalAlign=top;childLayout=stackLayout;horizontal=1;startSize=26;horizontalStack=0;resizeParent=1;resizeParentMax=0;resizeLast=0;collapsible=1;marginBottom=0;whiteSpace=wrap;html=1;" vertex="1" parent="WIyWlLk6GJQsqaUBKTNV-1">
          <mxGeometry x="170" y="1080" width="160" height="34" as="geometry" />
        </mxCell>
        <mxCell id="8c5ajKfIK-UFhFimAFkt-159" value="" style="line;strokeWidth=1;fillColor=none;align=left;verticalAlign=middle;spacingTop=-1;spacingLeft=3;spacingRight=3;rotatable=0;labelPosition=right;points=[];portConstraint=eastwest;strokeColor=inherit;" vertex="1" parent="8c5ajKfIK-UFhFimAFkt-157">
          <mxGeometry y="26" width="160" height="8" as="geometry" />
        </mxCell>
        <mxCell id="8c5ajKfIK-UFhFimAFkt-161" value="PlayerHandler" style="swimlane;fontStyle=1;align=center;verticalAlign=top;childLayout=stackLayout;horizontal=1;startSize=26;horizontalStack=0;resizeParent=1;resizeParentMax=0;resizeLast=0;collapsible=1;marginBottom=0;whiteSpace=wrap;html=1;" vertex="1" parent="WIyWlLk6GJQsqaUBKTNV-1">
          <mxGeometry x="15" y="1176" width="160" height="34" as="geometry" />
        </mxCell>
        <mxCell id="8c5ajKfIK-UFhFimAFkt-163" value="" style="line;strokeWidth=1;fillColor=none;align=left;verticalAlign=middle;spacingTop=-1;spacingLeft=3;spacingRight=3;rotatable=0;labelPosition=right;points=[];portConstraint=eastwest;strokeColor=inherit;" vertex="1" parent="8c5ajKfIK-UFhFimAFkt-161">
          <mxGeometry y="26" width="160" height="8" as="geometry" />
        </mxCell>
        <mxCell id="8c5ajKfIK-UFhFimAFkt-169" value="" style="endArrow=diamondThin;endFill=1;endSize=24;html=1;rounded=0;exitX=0.5;exitY=0;exitDx=0;exitDy=0;entryX=0.306;entryY=0;entryDx=0;entryDy=0;entryPerimeter=0;startArrow=none;startFill=0;" edge="1" parent="WIyWlLk6GJQsqaUBKTNV-1" source="8c5ajKfIK-UFhFimAFkt-149" target="8c5ajKfIK-UFhFimAFkt-73">
          <mxGeometry width="160" relative="1" as="geometry">
            <mxPoint x="590" y="940" as="sourcePoint" />
            <mxPoint x="609" y="1062" as="targetPoint" />
            <Array as="points">
              <mxPoint x="90" y="940" />
              <mxPoint x="420" y="940" />
              <mxPoint x="790" y="820" />
              <mxPoint x="919" y="820" />
            </Array>
          </mxGeometry>
        </mxCell>
        <mxCell id="8c5ajKfIK-UFhFimAFkt-170" value="" style="endArrow=diamondThin;endFill=1;endSize=24;html=1;rounded=0;exitX=0.87;exitY=-0.024;exitDx=0;exitDy=0;entryX=0.113;entryY=0;entryDx=0;entryDy=0;entryPerimeter=0;startArrow=none;startFill=0;exitPerimeter=0;" edge="1" parent="WIyWlLk6GJQsqaUBKTNV-1" source="8c5ajKfIK-UFhFimAFkt-157" target="8c5ajKfIK-UFhFimAFkt-73">
          <mxGeometry width="160" relative="1" as="geometry">
            <mxPoint x="700" y="1000" as="sourcePoint" />
            <mxPoint x="719" y="1122" as="targetPoint" />
            <Array as="points">
              <mxPoint x="310" y="1000" />
              <mxPoint x="888" y="840" />
            </Array>
          </mxGeometry>
        </mxCell>
        <mxCell id="8c5ajKfIK-UFhFimAFkt-171" value="" style="endArrow=diamondThin;endFill=1;endSize=24;html=1;rounded=0;exitX=0.5;exitY=0;exitDx=0;exitDy=0;entryX=0.546;entryY=0.025;entryDx=0;entryDy=0;entryPerimeter=0;startArrow=none;startFill=0;" edge="1" parent="WIyWlLk6GJQsqaUBKTNV-1" source="8c5ajKfIK-UFhFimAFkt-153" target="8c5ajKfIK-UFhFimAFkt-73">
          <mxGeometry width="160" relative="1" as="geometry">
            <mxPoint x="780" y="960" as="sourcePoint" />
            <mxPoint x="799" y="1082" as="targetPoint" />
            <Array as="points">
              <mxPoint x="430" y="810" />
              <mxPoint x="956" y="810" />
            </Array>
          </mxGeometry>
        </mxCell>
        <mxCell id="8c5ajKfIK-UFhFimAFkt-172" value="" style="endArrow=diamondThin;endFill=1;endSize=24;html=1;rounded=0;exitX=1;exitY=0.25;exitDx=0;exitDy=0;entryX=0;entryY=0.5;entryDx=0;entryDy=0;startArrow=none;startFill=0;" edge="1" parent="WIyWlLk6GJQsqaUBKTNV-1" source="8c5ajKfIK-UFhFimAFkt-161" target="8c5ajKfIK-UFhFimAFkt-73">
          <mxGeometry width="160" relative="1" as="geometry">
            <mxPoint x="920" y="1060" as="sourcePoint" />
            <mxPoint x="939" y="1182" as="targetPoint" />
            <Array as="points">
              <mxPoint x="310" y="1183" />
              <mxPoint x="660" y="970" />
            </Array>
          </mxGeometry>
        </mxCell>
        <mxCell id="8c5ajKfIK-UFhFimAFkt-173" value="1" style="text;html=1;align=center;verticalAlign=middle;resizable=0;points=[];autosize=1;strokeColor=none;fillColor=none;" vertex="1" parent="WIyWlLk6GJQsqaUBKTNV-1">
          <mxGeometry x="225" y="862" width="30" height="30" as="geometry" />
        </mxCell>
        <mxCell id="8c5ajKfIK-UFhFimAFkt-174" value="1" style="text;html=1;align=center;verticalAlign=middle;resizable=0;points=[];autosize=1;strokeColor=none;fillColor=none;" vertex="1" parent="WIyWlLk6GJQsqaUBKTNV-1">
          <mxGeometry x="95" y="958" width="30" height="30" as="geometry" />
        </mxCell>
        <mxCell id="8c5ajKfIK-UFhFimAFkt-175" value="1" style="text;html=1;align=center;verticalAlign=middle;resizable=0;points=[];autosize=1;strokeColor=none;fillColor=none;" vertex="1" parent="WIyWlLk6GJQsqaUBKTNV-1">
          <mxGeometry x="265" y="1058" width="30" height="30" as="geometry" />
        </mxCell>
        <mxCell id="8c5ajKfIK-UFhFimAFkt-176" value="1" style="text;html=1;align=center;verticalAlign=middle;resizable=0;points=[];autosize=1;strokeColor=none;fillColor=none;" vertex="1" parent="WIyWlLk6GJQsqaUBKTNV-1">
          <mxGeometry x="185" y="1158" width="30" height="30" as="geometry" />
        </mxCell>
        <mxCell id="8c5ajKfIK-UFhFimAFkt-177" value="1" style="text;html=1;align=center;verticalAlign=middle;resizable=0;points=[];autosize=1;strokeColor=none;fillColor=none;" vertex="1" parent="WIyWlLk6GJQsqaUBKTNV-1">
          <mxGeometry x="835" y="888" width="30" height="30" as="geometry" />
        </mxCell>
        <mxCell id="8c5ajKfIK-UFhFimAFkt-178" value="1" style="text;html=1;align=center;verticalAlign=middle;resizable=0;points=[];autosize=1;strokeColor=none;fillColor=none;" vertex="1" parent="WIyWlLk6GJQsqaUBKTNV-1">
          <mxGeometry x="945" y="808" width="30" height="30" as="geometry" />
        </mxCell>
        <mxCell id="8c5ajKfIK-UFhFimAFkt-179" value="1" style="text;html=1;align=center;verticalAlign=middle;resizable=0;points=[];autosize=1;strokeColor=none;fillColor=none;" vertex="1" parent="WIyWlLk6GJQsqaUBKTNV-1">
          <mxGeometry x="915" y="828" width="30" height="30" as="geometry" />
        </mxCell>
        <mxCell id="8c5ajKfIK-UFhFimAFkt-180" value="1" style="text;html=1;align=center;verticalAlign=middle;resizable=0;points=[];autosize=1;strokeColor=none;fillColor=none;" vertex="1" parent="WIyWlLk6GJQsqaUBKTNV-1">
          <mxGeometry x="845" y="818" width="30" height="30" as="geometry" />
        </mxCell>
        <mxCell id="8c5ajKfIK-UFhFimAFkt-181" value="PlayerView" style="swimlane;fontStyle=1;align=center;verticalAlign=top;childLayout=stackLayout;horizontal=1;startSize=26;horizontalStack=0;resizeParent=1;resizeParentMax=0;resizeLast=0;collapsible=1;marginBottom=0;whiteSpace=wrap;html=1;" vertex="1" parent="WIyWlLk6GJQsqaUBKTNV-1">
          <mxGeometry x="750" y="1240" width="160" height="34" as="geometry" />
        </mxCell>
        <mxCell id="8c5ajKfIK-UFhFimAFkt-183" value="" style="line;strokeWidth=1;fillColor=none;align=left;verticalAlign=middle;spacingTop=-1;spacingLeft=3;spacingRight=3;rotatable=0;labelPosition=right;points=[];portConstraint=eastwest;strokeColor=inherit;" vertex="1" parent="8c5ajKfIK-UFhFimAFkt-181">
          <mxGeometry y="26" width="160" height="8" as="geometry" />
        </mxCell>
        <mxCell id="8c5ajKfIK-UFhFimAFkt-185" value="LoginView" style="swimlane;fontStyle=1;align=center;verticalAlign=top;childLayout=stackLayout;horizontal=1;startSize=26;horizontalStack=0;resizeParent=1;resizeParentMax=0;resizeLast=0;collapsible=1;marginBottom=0;whiteSpace=wrap;html=1;" vertex="1" parent="WIyWlLk6GJQsqaUBKTNV-1">
          <mxGeometry x="955" y="1164" width="160" height="34" as="geometry" />
        </mxCell>
        <mxCell id="8c5ajKfIK-UFhFimAFkt-187" value="" style="line;strokeWidth=1;fillColor=none;align=left;verticalAlign=middle;spacingTop=-1;spacingLeft=3;spacingRight=3;rotatable=0;labelPosition=right;points=[];portConstraint=eastwest;strokeColor=inherit;" vertex="1" parent="8c5ajKfIK-UFhFimAFkt-185">
          <mxGeometry y="26" width="160" height="8" as="geometry" />
        </mxCell>
        <mxCell id="8c5ajKfIK-UFhFimAFkt-189" value="GameView" style="swimlane;fontStyle=1;align=center;verticalAlign=top;childLayout=stackLayout;horizontal=1;startSize=26;horizontalStack=0;resizeParent=1;resizeParentMax=0;resizeLast=0;collapsible=1;marginBottom=0;whiteSpace=wrap;html=1;" vertex="1" parent="WIyWlLk6GJQsqaUBKTNV-1">
          <mxGeometry x="950" y="1030" width="160" height="34" as="geometry" />
        </mxCell>
        <mxCell id="8c5ajKfIK-UFhFimAFkt-191" value="" style="line;strokeWidth=1;fillColor=none;align=left;verticalAlign=middle;spacingTop=-1;spacingLeft=3;spacingRight=3;rotatable=0;labelPosition=right;points=[];portConstraint=eastwest;strokeColor=inherit;" vertex="1" parent="8c5ajKfIK-UFhFimAFkt-189">
          <mxGeometry y="26" width="160" height="8" as="geometry" />
        </mxCell>
        <mxCell id="8c5ajKfIK-UFhFimAFkt-194" value="LobbyView" style="swimlane;fontStyle=1;align=center;verticalAlign=top;childLayout=stackLayout;horizontal=1;startSize=26;horizontalStack=0;resizeParent=1;resizeParentMax=0;resizeLast=0;collapsible=1;marginBottom=0;whiteSpace=wrap;html=1;" vertex="1" parent="WIyWlLk6GJQsqaUBKTNV-1">
          <mxGeometry x="750" y="1098" width="160" height="34" as="geometry" />
        </mxCell>
        <mxCell id="8c5ajKfIK-UFhFimAFkt-196" value="" style="line;strokeWidth=1;fillColor=none;align=left;verticalAlign=middle;spacingTop=-1;spacingLeft=3;spacingRight=3;rotatable=0;labelPosition=right;points=[];portConstraint=eastwest;strokeColor=inherit;" vertex="1" parent="8c5ajKfIK-UFhFimAFkt-194">
          <mxGeometry y="26" width="160" height="8" as="geometry" />
        </mxCell>
        <mxCell id="8c5ajKfIK-UFhFimAFkt-198" value="" style="endArrow=none;endFill=0;endSize=24;html=1;rounded=0;entryX=0;entryY=0.5;entryDx=0;entryDy=0;startArrow=none;startFill=0;exitX=1.001;exitY=0.627;exitDx=0;exitDy=0;exitPerimeter=0;" edge="1" parent="WIyWlLk6GJQsqaUBKTNV-1" source="8c5ajKfIK-UFhFimAFkt-161" target="8c5ajKfIK-UFhFimAFkt-181">
          <mxGeometry width="160" relative="1" as="geometry">
            <mxPoint x="175" y="1193" as="sourcePoint" />
            <mxPoint x="419" y="1362" as="targetPoint" />
            <Array as="points">
              <mxPoint x="420" y="1197" />
            </Array>
          </mxGeometry>
        </mxCell>
        <mxCell id="8c5ajKfIK-UFhFimAFkt-199" value="" style="endArrow=none;endFill=0;endSize=24;html=1;rounded=0;exitX=1;exitY=0.5;exitDx=0;exitDy=0;entryX=0;entryY=0.5;entryDx=0;entryDy=0;startArrow=none;startFill=0;" edge="1" parent="WIyWlLk6GJQsqaUBKTNV-1" source="8c5ajKfIK-UFhFimAFkt-157" target="8c5ajKfIK-UFhFimAFkt-185">
          <mxGeometry width="160" relative="1" as="geometry">
            <mxPoint x="480" y="1300" as="sourcePoint" />
            <mxPoint x="499" y="1422" as="targetPoint" />
            <Array as="points">
              <mxPoint x="570" y="1131" />
            </Array>
          </mxGeometry>
        </mxCell>
        <mxCell id="8c5ajKfIK-UFhFimAFkt-200" value="" style="endArrow=none;endFill=0;endSize=24;html=1;rounded=0;exitX=1;exitY=0.5;exitDx=0;exitDy=0;entryX=0;entryY=0.5;entryDx=0;entryDy=0;startArrow=none;startFill=0;" edge="1" parent="WIyWlLk6GJQsqaUBKTNV-1" source="8c5ajKfIK-UFhFimAFkt-149" target="8c5ajKfIK-UFhFimAFkt-194">
          <mxGeometry width="160" relative="1" as="geometry">
            <mxPoint x="520" y="1230" as="sourcePoint" />
            <mxPoint x="539" y="1352" as="targetPoint" />
            <Array as="points">
              <mxPoint x="680" y="1065" />
            </Array>
          </mxGeometry>
        </mxCell>
        <mxCell id="8c5ajKfIK-UFhFimAFkt-201" value="" style="endArrow=none;endFill=0;endSize=24;html=1;rounded=0;exitX=1;exitY=0.25;exitDx=0;exitDy=0;entryX=0;entryY=0.5;entryDx=0;entryDy=0;startArrow=none;startFill=0;" edge="1" parent="WIyWlLk6GJQsqaUBKTNV-1" source="8c5ajKfIK-UFhFimAFkt-153" target="8c5ajKfIK-UFhFimAFkt-189">
          <mxGeometry width="160" relative="1" as="geometry">
            <mxPoint x="490" y="1190" as="sourcePoint" />
            <mxPoint x="509" y="1312" as="targetPoint" />
            <Array as="points">
              <mxPoint x="840" y="997" />
            </Array>
          </mxGeometry>
        </mxCell>
        <mxCell id="8c5ajKfIK-UFhFimAFkt-202" value="1" style="text;html=1;align=center;verticalAlign=middle;resizable=0;points=[];autosize=1;strokeColor=none;fillColor=none;" vertex="1" parent="WIyWlLk6GJQsqaUBKTNV-1">
          <mxGeometry x="335" y="868" width="30" height="30" as="geometry" />
        </mxCell>
        <mxCell id="8c5ajKfIK-UFhFimAFkt-203" value="1" style="text;html=1;align=center;verticalAlign=middle;resizable=0;points=[];autosize=1;strokeColor=none;fillColor=none;" vertex="1" parent="WIyWlLk6GJQsqaUBKTNV-1">
          <mxGeometry x="175" y="978" width="30" height="30" as="geometry" />
        </mxCell>
        <mxCell id="8c5ajKfIK-UFhFimAFkt-204" value="1" style="text;html=1;align=center;verticalAlign=middle;resizable=0;points=[];autosize=1;strokeColor=none;fillColor=none;" vertex="1" parent="WIyWlLk6GJQsqaUBKTNV-1">
          <mxGeometry x="325" y="1068" width="30" height="30" as="geometry" />
        </mxCell>
        <mxCell id="8c5ajKfIK-UFhFimAFkt-205" value="1" style="text;html=1;align=center;verticalAlign=middle;resizable=0;points=[];autosize=1;strokeColor=none;fillColor=none;" vertex="1" parent="WIyWlLk6GJQsqaUBKTNV-1">
          <mxGeometry x="180" y="1200" width="30" height="30" as="geometry" />
        </mxCell>
        <mxCell id="8c5ajKfIK-UFhFimAFkt-206" value="1" style="text;html=1;align=center;verticalAlign=middle;resizable=0;points=[];autosize=1;strokeColor=none;fillColor=none;" vertex="1" parent="WIyWlLk6GJQsqaUBKTNV-1">
          <mxGeometry x="710" y="1258" width="30" height="30" as="geometry" />
        </mxCell>
        <mxCell id="8c5ajKfIK-UFhFimAFkt-207" value="1" style="text;html=1;align=center;verticalAlign=middle;resizable=0;points=[];autosize=1;strokeColor=none;fillColor=none;" vertex="1" parent="WIyWlLk6GJQsqaUBKTNV-1">
          <mxGeometry x="920" y="1180" width="30" height="30" as="geometry" />
        </mxCell>
        <mxCell id="8c5ajKfIK-UFhFimAFkt-208" value="1" style="text;html=1;align=center;verticalAlign=middle;resizable=0;points=[];autosize=1;strokeColor=none;fillColor=none;" vertex="1" parent="WIyWlLk6GJQsqaUBKTNV-1">
          <mxGeometry x="750" y="1068" width="30" height="30" as="geometry" />
        </mxCell>
        <mxCell id="8c5ajKfIK-UFhFimAFkt-209" value="1" style="text;html=1;align=center;verticalAlign=middle;resizable=0;points=[];autosize=1;strokeColor=none;fillColor=none;" vertex="1" parent="WIyWlLk6GJQsqaUBKTNV-1">
          <mxGeometry x="1030" y="998" width="30" height="30" as="geometry" />
        </mxCell>
        <mxCell id="8c5ajKfIK-UFhFimAFkt-216" value="MODEL" style="text;html=1;align=center;verticalAlign=middle;resizable=0;points=[];autosize=1;strokeColor=none;fillColor=none;" vertex="1" parent="WIyWlLk6GJQsqaUBKTNV-1">
          <mxGeometry x="545" y="10" width="70" height="30" as="geometry" />
        </mxCell>
        <mxCell id="8c5ajKfIK-UFhFimAFkt-217" value="CONTROLLER" style="text;html=1;align=center;verticalAlign=middle;resizable=0;points=[];autosize=1;strokeColor=none;fillColor=none;" vertex="1" parent="WIyWlLk6GJQsqaUBKTNV-1">
          <mxGeometry x="1075" y="10" width="110" height="30" as="geometry" />
        </mxCell>
        <mxCell id="8c5ajKfIK-UFhFimAFkt-218" value="VIRTUALVIEW" style="text;html=1;align=center;verticalAlign=middle;resizable=0;points=[];autosize=1;strokeColor=none;fillColor=none;" vertex="1" parent="WIyWlLk6GJQsqaUBKTNV-1">
          <mxGeometry x="-20" y="598" width="100" height="30" as="geometry" />
        </mxCell>
        <mxCell id="8c5ajKfIK-UFhFimAFkt-219" value="NETWORK HANDLER" style="text;html=1;align=center;verticalAlign=middle;resizable=0;points=[];autosize=1;strokeColor=none;fillColor=none;" vertex="1" parent="WIyWlLk6GJQsqaUBKTNV-1">
          <mxGeometry x="-20" y="864" width="150" height="30" as="geometry" />
        </mxCell>
        <mxCell id="8c5ajKfIK-UFhFimAFkt-220" value="NETWORKING" style="text;html=1;align=center;verticalAlign=middle;resizable=0;points=[];autosize=1;strokeColor=none;fillColor=none;" vertex="1" parent="WIyWlLk6GJQsqaUBKTNV-1">
          <mxGeometry x="1010" y="578" width="110" height="30" as="geometry" />
        </mxCell>
        <mxCell id="8c5ajKfIK-UFhFimAFkt-221" value="VIEW" style="text;html=1;align=center;verticalAlign=middle;resizable=0;points=[];autosize=1;strokeColor=none;fillColor=none;" vertex="1" parent="WIyWlLk6GJQsqaUBKTNV-1">
          <mxGeometry x="670" y="992" width="50" height="30" as="geometry" />
        </mxCell>
      </root>
    </mxGraphModel>
  </diagram>
</mxfile>
